<svg xmlns="http://www.w3.org/2000/svg" version="1.1" xmlns:xlink="http://www.w3.org/1999/xlink" xmlns:svgjs="http://svgjs.com/svgjs" width="50" height="50" preserveAspectRatio="none" viewBox="0 0 50 50"><g mask="url(&quot;#SvgjsMask1625&quot;)" fill="none"><path d="M12.39 8.1 a13.27 13.27 0 1 0 26.54 0 a13.27 13.27 0 1 0 -26.54 0z" fill="rgba(255, 202, 0, 1)" class="triangle-float1"></path><path d="M33.84 44.95 a13.33 13.33 0 1 0 26.66 0 a13.33 13.33 0 1 0 -26.66 0z" fill="rgba(255, 202, 0, 1)" class="triangle-float1"></path><path d="M16.27 2.64 a10.74 10.74 0 1 0 21.48 0 a10.74 10.74 0 1 0 -21.48 0z" fill="rgba(255, 202, 0, 1)" class="triangle-float3"></path><path d="M32.25 1.34 a12.96 12.96 0 1 0 25.92 0 a12.96 12.96 0 1 0 -25.92 0z" fill="rgba(255, 202, 0, 1)" class="triangle-float2"></path></g><defs><mask id="SvgjsMask1625"><rect width="50" height="50" fill="#ffffff"></rect></mask><style>
            @keyframes float1 {
                0%{transform: translate(0, 0)}
                50%{transform: translate(-10px, 0)}
                100%{transform: translate(0, 0)}
            }

            .triangle-float1 {
                animation: float1 5s infinite;
            }

            @keyframes float2 {
                0%{transform: translate(0, 0)}
                50%{transform: translate(-5px, -5px)}
                100%{transform: translate(0, 0)}
            }

            .triangle-float2 {
                animation: float2 4s infinite;
            }

            @keyframes float3 {
                0%{transform: translate(0, 0)}
                50%{transform: translate(0, -10px)}
                100%{transform: translate(0, 0)}
            }

            .triangle-float3 {
                animation: float3 6s infinite;
            }
        </style></defs></svg>