<!--?xml version="1.0" standalone="no"?-->
              <svg id="sw-js-blob-svg" viewBox="0 0 100 100" xmlns="http://www.w3.org/2000/svg" version="1.1">
                    <defs> 
                        <linearGradient id="sw-gradient" x1="0" x2="1" y1="1" y2="0">
                            <stop id="stop1" stop-color="rgba(255, 201.791, 0, 0.27)" offset="0%"></stop>
                            <stop id="stop2" stop-color="rgba(249.379, 197.343, 0, 1)" offset="100%"></stop>
                        </linearGradient>
                    </defs>
                <path fill="url(#sw-gradient)" d="M25.9,-35.8C33,-30.5,37.8,-22.2,39.5,-13.6C41.3,-5,40,3.8,37.3,12.2C34.6,20.5,30.5,28.5,24.1,34.3C17.6,40.1,8.8,43.7,0.6,42.9C-7.6,42,-15.2,36.7,-23.1,31.4C-31.1,26.1,-39.3,20.8,-42.6,13.2C-45.8,5.7,-44.1,-4,-39.1,-10.6C-34.1,-17.2,-25.7,-20.6,-18.7,-25.9C-11.6,-31.2,-5.8,-38.5,1.8,-41C9.4,-43.5,18.8,-41.2,25.9,-35.8Z" width="100%" height="100%" transform="translate(50 50)" stroke-width="0" style="transition: all 0.3s ease 0s;" stroke="url(#sw-gradient)"></path>
              </svg>