<svg xmlns="http://www.w3.org/2000/svg" version="1.1" xmlns:xlink="http://www.w3.org/1999/xlink" xmlns:svgjs="http://svgjs.com/svgjs" width="1000" height="560" preserveAspectRatio="none" viewBox="0 0 1000 560"><g mask="url(&quot;#SvgjsMask1044&quot;)" fill="none"><path d="M95.26 359.93 a6.61 6.61 0 1 0 13.22 0 a6.61 6.61 0 1 0 -13.22 0z" stroke="rgba(1, 138, 232, 1)"></path><path d="M927.95 16.81 a37.26 37.26 0 1 0 74.52 0 a37.26 37.26 0 1 0 -74.52 0z" fill="rgba(1, 138, 232, 1)"></path><path d="M750.84 543.65a22.91 22.91 0 1 0-12.28-44.14z" stroke="rgba(10, 108, 174, 1)"></path><path d="M627.64 526.17 a12.84 12.84 0 1 0 25.68 0 a12.84 12.84 0 1 0 -25.68 0z" stroke="rgba(10, 108, 174, 1)"></path><path d="M494.43 52.4a9.87 9.87 0 1 0-14.85 13z" fill="rgba(1, 138, 232, 1)"></path><path d="M720.89 536.34a55.35 55.35 0 1 0 90-64.44z" stroke="rgba(1, 138, 232, 1)"></path><path d="M146.51 201.08L151.3 201.08L151.3 246.64L146.51 246.64z" stroke="rgba(1, 138, 232, 1)"></path><path d="M423.81 559.76L439.96 559.76L439.96 575.91L423.81 575.91z" fill="rgba(10, 108, 174, 1)"></path><path d="M922.38 93.04L944.88 93.04L944.88 115.54L922.38 115.54z" stroke="rgba(1, 138, 232, 1)"></path><path d="M229.18 249.16L237.1 249.16L237.1 293.51L229.18 293.51z" stroke="rgba(1, 138, 232, 1)"></path><path d="M921.27 43.67 a12.19 12.19 0 1 0 24.38 0 a12.19 12.19 0 1 0 -24.38 0z" fill="rgba(1, 138, 232, 1)"></path><path d="M460.73 261.38L476.51 261.38L476.51 277.16L460.73 277.16z" fill="rgba(10, 108, 174, 1)"></path><path d="M765 203.97L780.33 203.97L780.33 219.3L765 219.3z" fill="rgba(10, 108, 174, 1)"></path><path d="M766.24 372.9a51.93 51.93 0 1 0-48.78 91.7z" fill="rgba(10, 108, 174, 1)"></path><path d="M549.78 142.46L572.37 142.46L572.37 165.05L549.78 165.05z" stroke="rgba(1, 138, 232, 1)"></path><path d="M150.94 303.88L204.85 303.88L204.85 315.01L150.94 315.01z" fill="rgba(1, 138, 232, 1)"></path><path d="M879.86 475.21L891.1 475.21L891.1 482.16L879.86 482.16z" stroke="rgba(10, 108, 174, 1)"></path><path d="M653.07 367.44 a13.58 13.58 0 1 0 27.16 0 a13.58 13.58 0 1 0 -27.16 0z" fill="rgba(1, 138, 232, 1)"></path><path d="M48.28 534.63a48.57 48.57 0 1 0-59.13-77.08z" fill="rgba(10, 108, 174, 1)"></path><path d="M616.33 324.47 a34.6 34.6 0 1 0 69.2 0 a34.6 34.6 0 1 0 -69.2 0z" stroke="rgba(1, 138, 232, 1)"></path><path d="M72.35 115.6L121.22 115.6L121.22 164.47L72.35 164.47z" fill="rgba(10, 108, 174, 1)"></path><path d="M956.27 320.15a21.75 21.75 0 1 0 43.1-5.82z" fill="rgba(10, 108, 174, 1)"></path><path d="M460.74 394.74L490.61 394.74L490.61 424.61L460.74 424.61z" stroke="rgba(1, 138, 232, 1)"></path></g><defs><mask id="SvgjsMask1044"><rect width="1000" height="560" fill="#ffffff"></rect></mask></defs></svg>