<svg xmlns="http://www.w3.org/2000/svg" version="1.1" xmlns:xlink="http://www.w3.org/1999/xlink" xmlns:svgjs="http://svgjs.com/svgjs" width="400" height="400" preserveAspectRatio="none" viewBox="0 0 400 400"><g mask="url(&quot;#SvgjsMask1030&quot;)" fill="none"><path d="M126.14 445.54C181.67 421.05 191.9 247.02 264.41 245.98 336.92 244.94 358.71 351.25 402.68 357.98" stroke="rgba(255, 202, 0, 1)" stroke-width="2"></path><path d="M73.51 454.48C137.02 437.64 159.89 263.51 253.08 262.59 346.27 261.67 382.28 351.96 432.65 354.59" stroke="rgba(255, 202, 0, 1)" stroke-width="2"></path><path d="M140.71 469.61C189.08 395.63 148.89 135.75 228.56 127.14 308.24 118.53 345.96 275.77 404.27 287.14" stroke="rgba(255, 202, 0, 1)" stroke-width="2"></path><path d="M175 477.5C213.27 458.64 166.76 363.93 267.41 334.02 368.06 304.11 390.38 174.61 452.23 162.02" stroke="rgba(255, 202, 0, 1)" stroke-width="2"></path><path d="M246.63 434.7C287.59 342.59 233.57 72.29 316.92 37.65 400.26 3.01 414.11 136.2 457.49 141.65" stroke="rgba(255, 202, 0, 1)" stroke-width="2"></path></g><defs><mask id="SvgjsMask1030"><rect width="400" height="400" fill="#ffffff"></rect></mask></defs></svg>