<svg id="visual" viewBox="0 0 500 300" width="500" height="300" xmlns="http://www.w3.org/2000/svg" xmlns:xlink="http://www.w3.org/1999/xlink" version="1.1"><path d="M0 192L11.8 190C23.7 188 47.3 184 71.2 188.5C95 193 119 206 142.8 212.3C166.7 218.7 190.3 218.3 214.2 212.8C238 207.3 262 196.7 285.8 191.3C309.7 186 333.3 186 357.2 187.8C381 189.7 405 193.3 428.8 199C452.7 204.7 476.3 212.3 488.2 216.2L500 220L500 301L488.2 301C476.3 301 452.7 301 428.8 301C405 301 381 301 357.2 301C333.3 301 309.7 301 285.8 301C262 301 238 301 214.2 301C190.3 301 166.7 301 142.8 301C119 301 95 301 71.2 301C47.3 301 23.7 301 11.8 301L0 301Z" fill="#efc51d"></path><path d="M0 218L11.8 220.5C23.7 223 47.3 228 71.2 231C95 234 119 235 142.8 233.8C166.7 232.7 190.3 229.3 214.2 229.3C238 229.3 262 232.7 285.8 230C309.7 227.3 333.3 218.7 357.2 214.3C381 210 405 210 428.8 209.3C452.7 208.7 476.3 207.3 488.2 206.7L500 206L500 301L488.2 301C476.3 301 452.7 301 428.8 301C405 301 381 301 357.2 301C333.3 301 309.7 301 285.8 301C262 301 238 301 214.2 301C190.3 301 166.7 301 142.8 301C119 301 95 301 71.2 301C47.3 301 23.7 301 11.8 301L0 301Z" fill="#f2d116"></path><path d="M0 250L11.8 249.3C23.7 248.7 47.3 247.3 71.2 247.7C95 248 119 250 142.8 245.3C166.7 240.7 190.3 229.3 214.2 224.5C238 219.7 262 221.3 285.8 223.7C309.7 226 333.3 229 357.2 229.7C381 230.3 405 228.7 428.8 231.8C452.7 235 476.3 243 488.2 247L500 251L500 301L488.2 301C476.3 301 452.7 301 428.8 301C405 301 381 301 357.2 301C333.3 301 309.7 301 285.8 301C262 301 238 301 214.2 301C190.3 301 166.7 301 142.8 301C119 301 95 301 71.2 301C47.3 301 23.7 301 11.8 301L0 301Z" fill="#f3de0f"></path><path d="M0 251L11.8 250C23.7 249 47.3 247 71.2 246.2C95 245.3 119 245.7 142.8 246.8C166.7 248 190.3 250 214.2 252.8C238 255.7 262 259.3 285.8 258.5C309.7 257.7 333.3 252.3 357.2 249.5C381 246.7 405 246.3 428.8 246.5C452.7 246.7 476.3 247.3 488.2 247.7L500 248L500 301L488.2 301C476.3 301 452.7 301 428.8 301C405 301 381 301 357.2 301C333.3 301 309.7 301 285.8 301C262 301 238 301 214.2 301C190.3 301 166.7 301 142.8 301C119 301 95 301 71.2 301C47.3 301 23.7 301 11.8 301L0 301Z" fill="#f3eb08"></path><path d="M0 262L11.8 263.3C23.7 264.7 47.3 267.3 71.2 269.3C95 271.3 119 272.7 142.8 272C166.7 271.3 190.3 268.7 214.2 267.5C238 266.3 262 266.7 285.8 266.7C309.7 266.7 333.3 266.3 357.2 267.7C381 269 405 272 428.8 273.5C452.7 275 476.3 275 488.2 275L500 275L500 301L488.2 301C476.3 301 452.7 301 428.8 301C405 301 381 301 357.2 301C333.3 301 309.7 301 285.8 301C262 301 238 301 214.2 301C190.3 301 166.7 301 142.8 301C119 301 95 301 71.2 301C47.3 301 23.7 301 11.8 301L0 301Z" fill="#f2f906"></path></svg>